:FULLY-SPECIFIED
:FORCE-ALL-JOINTS-BE-3DOF
:DEGREES
1121
root 0.911939 14.7039 -28.4216 361.686 6.28064 363.278
lfemur -30.3302 9.82045 -25.0179
ltibia 67.9386 -0 0
lfoot -27.6384 23.5572 0.0658435
ltoes -18.3039 0 0
rfemur -49.0244 -8.54813 11.4052
rtibia 75.4762 -0 0
rfoot 14.0358 -1.20881 0.71216
rtoes -11.0249 0 0
lowerback 15.7949 0.93729 -10.7158
upperback -0.666699 -0.56641 2.14003
thorax -9.54961 0.334983 8.62339
lowerneck -4.7654 -3.48154 -5.45515
upperneck 4.7111 -4.55724 4.98934
head 2.62672 -2.22467 2.41134
lclavicle 3.27995e-15 -3.97569e-15 0
lhumerus 71.6901 -39.007 48.5985
lradius 92.3898 0 0
lwrist 27.8084 0 0
lhand -31.8285 39.9457 0
lfingers 7.12502 0 0
lthumb -5.08312 69.8647 0
rclavicle 3.27995e-15 -3.97569e-15 0
rhumerus -27.9275 32.5876 -95.8027
rradius 78.0231 0 0
rwrist -21.6376 0 0
rhand 10.5114 -46.7254 0
rfingers 7.12502 0 0
rthumb 35.6112 -73.1365 0
1122
root 0.867803 14.7358 -28.22 361.342 8.06128 363.219
lfemur -28.9398 9.64181 -24.5336
ltibia 67.3898 -0 0
lfoot -28.0326 23.4321 0.0619679
ltoes -18.2675 0 0
rfemur -49.2396 -8.28073 10.7497
rtibia 72.9796 -0 0
rfoot 15.5069 -0.92132 0.701083
rtoes -10.7346 0 0
lowerback 15.6599 0.883437 -10.5301
upperback -0.722873 -0.583895 2.20295
thorax -9.53098 0.320452 8.58784
lowerneck -4.13509 -4.00006 -6.06388
upperneck 4.81926 -5.26774 5.34708
head 2.62609 -2.58816 2.62184
lclavicle -1.66979e-14 -1.59028e-15 0
lhumerus 69.3461 -42.53 49.5951
lradius 94.5431 0 0
lwrist 27.7195 0 0
lhand -31.05 38.9937 0
lfingers 7.12502 0 0
lthumb -4.33145 68.9294 0
rclavicle -1.66979e-14 -1.59028e-15 0
rhumerus -25.5149 32.8048 -94.0824
rradius 79.7049 0 0
rwrist -19.6934 0 0
rhand 14.2503 -45.495 0
rfingers 7.12502 0 0
rthumb 39.1455 -70.9732 0
1123
root 0.821389 14.7709 -28.0143 360.972 9.73807 363.102
lfemur -27.5518 9.45165 -24.0541
ltibia 66.841 -0 0
lfoot -28.4268 23.307 0.0572315
ltoes -18.2311 0 0
rfemur -49.4577 -8.0158 10.0935
rtibia 70.483 -0 0
rfoot 16.9779 -0.63421 0.682629
rtoes -10.4443 0 0
lowerback 15.4735 0.898743 -10.2681
upperback -0.638799 -0.484665 2.25764
thorax -9.35188 0.341446 8.46663
lowerneck -4.05909 -4.58737 -6.70672
upperneck 5.08022 -6.05494 5.79769
head 2.8005 -2.98137 2.86085
lclavicle 1.50579e-14 1.07344e-14 0
lhumerus 66.5242 -46.1005 50.808
lradius 96.8878 0 0
lwrist 27.5479 0 0
lhand -30.3649 37.306 0
lfingers 7.12502 0 0
lthumb -3.66981 67.2542 0
rclavicle 1.50579e-14 1.07344e-14 0
rhumerus -22.5958 32.8717 -91.8901
rradius 82.0092 0 0
rwrist -17.8241 0 0
rhand 18.2498 -44.776 0
rfingers 7.12502 0 0
rthumb 42.9013 -69.0567 0
1124
root 0.778825 14.8072 -27.8072 360.587 11.4383 362.999
lfemur -26.1662 9.2501 -23.5798
ltibia 66.2922 -0 0
lfoot -28.821 23.1819 0.0516346
ltoes -18.1948 0 0
rfemur -49.6787 -7.75335 9.43679
rtibia 67.9864 -0 0
rfoot 18.4488 -0.34767 0.656812
rtoes -10.1539 0 0
lowerback 15.3063 0.827546 -10.0508
upperback -0.834001 -0.522896 2.32696
thorax -9.46593 0.329754 8.42673
lowerneck -2.86706 -5.00805 -7.41688
upperneck 5.161 -6.68236 6.21983
head 2.70514 -3.31534 3.13271
lclavicle -1.03368e-14 -4.77083e-15 0
lhumerus 61.9978 -50.0539 53.055
lradius 99.4542 0 0
lwrist 27.1578 0 0
lhand -29.6103 36.2213 0
lfingers 7.12502 0 0
lthumb -2.94107 66.1808 0
rclavicle -1.03368e-14 -4.77083e-15 0
rhumerus -20.0536 33.1284 -89.7909
rradius 84.7251 0 0
rwrist -16.087 0 0
rhand 20.4735 -42.8107 0
rfingers 7.12502 0 0
rthumb 44.9759 -66.3197 0
1125
root 0.740275 14.8383 -27.5971 360.235 12.8723 362.827
lfemur -24.7832 9.0373 -23.1107
ltibia 65.7434 -0 0
lfoot -29.2152 23.0569 0.0451773
ltoes -18.1584 0 0
rfemur -49.9026 -7.49343 8.77945
rtibia 65.4898 -0 0
rfoot 19.9196 -0.0618885 0.62365
rtoes -9.86358 0 0
lowerback 14.9638 0.787649 -9.70454
upperback -0.740253 -0.463829 2.43033
thorax -9.17682 0.322119 8.31588
lowerneck -2.94345 -5.49745 -8.11216
upperneck 5.6333 -7.33438 6.51038
head 2.98421 -3.64714 3.3312
lclavicle 2.40529e-14 -7.55382e-15 0
lhumerus 57.0029 -53.588 55.5834
lradius 102.001 0 0
lwrist 26.6942 0 0
lhand -29.4089 34.9766 0
lfingers 7.12502 0 0
lthumb -2.74658 64.9387 0
rclavicle 2.40529e-14 -7.55382e-15 0
rhumerus -16.3443 33.3341 -87.0002
rradius 87.6796 0 0
rwrist -14.6353 0 0
rhand 22.3782 -40.8146 0
rfingers 7.12502 0 0
rthumb 46.7438 -63.5928 0
1126
root 0.699485 14.8777 -27.383 359.791 14.4241 362.651
lfemur -23.4028 8.8134 -22.6473
ltibia 65.1946 -0 0
lfoot -29.6093 22.9319 0.0378601
ltoes -18.122 0 0
rfemur -50.1294 -7.23608 8.12147
rtibia 62.9932 -0 0
rfoot 21.3902 0.222946 0.583163
rtoes -9.57325 0 0
lowerback 14.9311 0.676543 -9.3647
upperback -0.931583 -0.547799 2.50011
thorax -9.35293 0.285176 8.21878
lowerneck -2.26421 -5.83707 -8.7558
upperneck 6.26277 -7.87357 7.06332
head 2.8555 -3.9094 3.25947
lclavicle -2.43511e-15 -6.75868e-15 0
lhumerus 49.5735 -57.3825 59.9321
lradius 104.573 0 0
lwrist 26.2199 0 0
lhand -29.9891 35.2619 0
lfingers 7.12502 0 0
lthumb -3.30692 65.216 0
rclavicle -2.43511e-15 -6.75868e-15 0
rhumerus -12.6233 33.3535 -84.2701
rradius 90.7749 0 0
rwrist -14.2425 0 0
rhand 23.8025 -39.4867 0
rfingers 7.12502 0 0
rthumb 48.0595 -61.6717 0
1127
root 0.662975 14.9215 -27.166 359.353 15.9334 362.518
lfemur -22.0252 8.57854 -22.1898
ltibia 64.6458 -0 0
lfoot -30.0035 22.807 0.0296833
ltoes -18.0857 0 0
rfemur -50.359 -6.98133 7.46284
rtibia 60.4965 -0 0
rfoot 22.8605 0.506645 0.535382
rtoes -9.28291 0 0
lowerback 14.3769 0.554062 -9.13013
upperback -0.790809 -0.600987 2.62115
thorax -8.86654 0.217007 8.20885
lowerneck -1.97354 -6.19301 -9.27244
upperneck 6.59273 -8.37089 7.13463
head 2.97151 -4.172 3.34157
lclavicle 4.9075e-14 -5.56597e-15 0
lhumerus 40.8333 -60.5936 65.6052
lradius 106.866 0 0
lwrist 25.6389 0 0
lhand -30.5066 35.532 0
lfingers 7.12502 0 0
lthumb -3.80664 65.4777 0
rclavicle 4.9075e-14 -5.56597e-15 0
rhumerus -7.94813 33.0373 -80.9774
rradius 93.9831 0 0
rwrist -14.1222 0 0
rhand 22.7911 -37.6619 0
rfingers 7.12502 0 0
rthumb 47.1257 -60.2725 0
1128
root 0.626439 14.963 -26.9459 358.849 17.3399 362.359
lfemur -20.6503 8.33289 -21.7383
ltibia 64.097 -0 0
lfoot -30.3976 22.6821 0.0206474
ltoes -18.0493 0 0
rfemur -50.5914 -6.72921 6.80353
rtibia 57.9999 -0 0
rfoot 24.3306 0.789022 0.480337
rtoes -8.99257 0 0
lowerback 14.1347 0.41264 -8.76359
upperback -0.862979 -0.70397 2.65352
thorax -8.78697 0.148581 8.0473
lowerneck -1.49002 -6.44314 -9.68581
upperneck 7.05306 -8.75035 7.13563
head 3.08029 -4.38084 3.39649
lclavicle -6.03808e-15 -3.18055e-15 0
lhumerus 28.5684 -63.2224 74.4
lradius 108.719 0 0
lwrist 25.7266 0 0
lhand -30.5674 34.8872 0
lfingers 7.12502 0 0
lthumb -3.86535 64.8319 0
rclavicle -6.03808e-15 -3.18055e-15 0
rhumerus -2.99522 32.3334 -77.9214
rradius 96.7587 0 0
rwrist -14.2964 0 0
rhand 21.0669 -35.627 0
rfingers 7.12502 0 0
rthumb 45.5277 -58.9157 0
1129
root 0.590579 14.9998 -26.7255 358.399 18.6863 362.241
lfemur -19.2783 8.07661 -21.2933
ltibia 63.5481 -0 0
lfoot -30.7917 22.5573 0.0107528
ltoes -18.0129 0 0
rfemur -50.8266 -6.47977 6.14354
rtibia 55.5033 -0 0
rfoot 25.8003 1.06989 0.418068
rtoes -8.70224 0 0
lowerback 13.8589 0.269982 -8.49753
upperback -0.866996 -0.818854 2.7281
thorax -8.61044 0.0724864 7.99023
lowerneck -1.33488 -6.63236 -10.068
upperneck 7.49704 -9.01414 7.04473
head 3.22444 -4.52889 3.41334
lclavicle -6.02069e-14 -7.95139e-16 0
lhumerus 13.8174 -63.9533 85.7309
lradius 109.675 0 0
lwrist 25.2686 0 0
lhand -31.2157 37.3313 0
lfingers 7.12502 0 0
lthumb -4.49147 67.2637 0
rclavicle -6.02069e-14 -7.95139e-16 0
rhumerus 2.32945 31.3719 -74.7454
rradius 99.3814 0 0
rwrist -13.9213 0 0
rhand 17.4956 -33.2313 0
rfingers 7.12502 0 0
rthumb 42.1953 -57.7556 0
1130
root 0.554029 15.0223 -26.5022 357.918 19.8689 362.119
lfemur -17.9092 7.80986 -20.8548
ltibia 62.9993 -0 0
lfoot -31.1858 22.4326 0
ltoes -17.9765 0 0
rfemur -51.0646 -6.23304 5.48283
rtibia 53.0067 -0 0
rfoot 27.2697 1.34907 0.348616
rtoes -8.4119 0 0
lowerback 13.6234 0.163811 -8.19961
upperback -0.836715 -0.889769 2.73665
thorax -8.42989 0.0132123 7.83157
lowerneck -1.28171 -6.80916 -10.2197
upperneck 7.84691 -9.2514 6.88557
head 3.34181 -4.65815 3.37212
lclavicle -3.926e-15 -1.74931e-14 0
lhumerus -1.43557 -62.6238 97.2117
lradius 110.123 0 0
lwrist 25.3644 0 0
lhand -31.3574 36.122 0
lfingers 7.12502 0 0
lthumb -4.62827 66.0514 0
rclavicle -3.926e-15 -1.74931e-14 0
rhumerus 8.14936 30.0056 -71.664
rradius 101.535 0 0
rwrist -12.8283 0 0
rhand 13.4144 -30.9838 0
rfingers 7.12502 0 0
rthumb 38.3571 -56.6849 0
1131
root 0.519428 15.0327 -26.2748 357.448 21.0973 362.158
lfemur -16.5431 7.53283 -20.4232
ltibia 62.4505 -0 0
lfoot -31.0525 22.978 0.0133668
ltoes -17.9402 0 0
rfemur -51.3053 -5.98905 4.82141
rtibia 50.5101 -0 0
rfoot 28.7388 1.62637 0.272028
rtoes -8.12156 0 0
lowerback 13.525 0.0301529 -8.00243
upperback -0.782808 -1.03274 2.6598
thorax -8.28917 -0.0768694 7.65478
lowerneck -1.40145 -6.94747 -10.1869
upperneck 8.02576 -9.41799 6.68994
head 3.41948 -4.7447 3.2909
lclavicle 5.2914e-14 -1.59028e-15 0
lhumerus -15.8732 -61.2219 107.331
lradius 111.697 0 0
lwrist 32.2705 0 0
lhand -28.7792 39.9115 0
lfingers 7.12502 0 0
lthumb -2.13845 69.8805 0
rclavicle 5.2914e-14 -1.59028e-15 0
rhumerus 14.014 28.4551 -68.781
rradius 103.421 0 0
rwrist -11.4379 0 0
rhand 6.17206 -29.736 0
rfingers 7.12502 0 0
rthumb 31.4873 -57.0435 0
1132
root 0.483989 15.0315 -26.0442 357.083 22.0662 362.271
lfemur -15.18 7.24569 -19.9987
ltibia 61.9017 -0 0
lfoot -30.9192 23.5234 0.0254645
ltoes -17.9038 0 0
rfemur -51.2049 -6.54699 4.97982
rtibia 48.0135 -0 0
rfoot 30.2075 1.90162 0.188358
rtoes -7.83123 0 0
lowerback 13.4008 -0.0923212 -7.96289
upperback -0.759302 -1.18902 2.5433
thorax -8.16497 -0.165238 7.52797
lowerneck -1.51117 -7.07961 -10.0082
upperneck 8.21486 -9.57965 6.44699
head 3.48842 -4.82667 3.17311
lclavicle 8.03835e-15 -9.54166e-15 0
lhumerus -27.6704 -57.1343 114.403
lradius 111.485 0 0
lwrist 34.5958 0 0
lhand -29.0913 35.7122 0
lfingers 7.12502 0 0
lthumb -2.43984 65.678 0
rclavicle 8.03835e-15 -9.54166e-15 0
rhumerus 20.1501 26.8902 -66.1771
rradius 104.695 0 0
rwrist -9.24949 0 0
rhand -2.66273 -29.0151 0
rfingers 7.12502 0 0
rthumb 23.0376 -57.6581 0
1133
root 0.447491 15.0137 -25.8141 356.741 23.0228 362.394
lfemur -13.8199 6.94862 -19.5814
ltibia 61.3529 0 0
lfoot -30.7857 24.0689 0.0362919
ltoes -17.8674 0 0
rfemur -51.1059 -7.1052 5.13743
rtibia 45.5169 -0 0
rfoot 31.6757 2.17463 0.0976611
rtoes -7.54089 0 0
lowerback 13.4501 -0.153743 -7.94846
upperback -0.711842 -1.28342 2.39272
thorax -8.12633 -0.219251 7.37183
lowerneck -1.88351 -7.28646 -9.61948
upperneck 8.27523 -9.82085 6.1708
head 3.55526 -4.93767 2.99987
lclavicle 5.1156e-15 -1.11319e-14 0
lhumerus -36.7291 -52.0276 118.216
lradius 111.192 0 0
lwrist 37.8151 0 0
lhand -27.842 33.6486 0
lfingers 7.12502 0 0
lthumb -1.23327 63.6248 0
rclavicle 5.1156e-15 -1.11319e-14 0
rhumerus 26.3012 24.7948 -63.6032
rradius 105.713 0 0
rwrist -6.69293 0 0
rhand -11.3997 -29.8449 0
rfingers 7.12502 0 0
rthumb 14.6354 -59.3085 0
1134
root 0.409135 14.9828 -25.5829 356.56 23.9396 362.675
lfemur -12.463 6.64182 -19.1716
ltibia 60.9923 -0 0
lfoot -30.6521 24.6144 0.0458479
ltoes -17.8311 0 0
rfemur -51.0083 -7.66368 5.29426
rtibia 43.0202 -0 0
rfoot 33.1435 2.44523 0
rtoes -7.25056 0 0
lowerback 13.5006 -0.163004 -8.23582
upperback -0.679878 -1.35883 2.23005
thorax -8.10494 -0.249634 7.37404
lowerneck -2.26779 -7.54512 -9.24447
upperneck 8.24737 -10.1412 6.02049
head 3.60875 -5.08337 2.8625
lclavicle -5.35958e-14 9.14409e-15 0
lhumerus -43.7832 -46.3595 119.546
lradius 110.438 0 0
lwrist 40.4622 0 0
lhand -26.1323 31.0731 0
lfingers 7.12502 0 0
lthumb 0.417994 61.0525 0
rclavicle -5.35958e-14 9.14409e-15 0
rhumerus 32.4569 22.2859 -61.0737
rradius 106.311 0 0
rwrist -3.86376 0 0
rhand -20.3082 -32.6794 0
rfingers 7.12502 0 0
rthumb 6.04225 -62.5732 0
